<mxfile host="app.diagrams.net" agent="Mozilla/5.0 (Windows NT 10.0; Win64; x64) AppleWebKit/537.36 (KHTML, like Gecko) Chrome/136.0.0.0 Safari/537.36" version="26.1.0">
  <diagram name="Trang-1" id="esCE19KSeqyojker4bUV">
    <mxGraphModel dx="2206" dy="2304" grid="1" gridSize="10" guides="1" tooltips="1" connect="1" arrows="1" fold="1" page="1" pageScale="1" pageWidth="827" pageHeight="1169" math="0" shadow="0">
      <root>
        <mxCell id="0" />
        <mxCell id="1" parent="0" />
        <UserObject label="" id="7nzO4_Z8czerWi-mGgZl-3">
          <mxCell style="shape=ext;double=1;rounded=1;whiteSpace=wrap;html=1;" vertex="1" parent="1">
            <mxGeometry x="120" y="-140" width="320" height="290" as="geometry" />
          </mxCell>
        </UserObject>
        <mxCell id="7nzO4_Z8czerWi-mGgZl-5" value="" style="shape=image;verticalLabelPosition=bottom;labelBackgroundColor=default;verticalAlign=top;aspect=fixed;imageAspect=0;image=https://salt.tikicdn.com/cache/w500/ts/upload/c0/8b/46/c3f0dc850dd93bfa7af7ada0cbd75dc0.png;" vertex="1" parent="1">
          <mxGeometry x="200" y="-130" width="170" height="170" as="geometry" />
        </mxCell>
        <mxCell id="7nzO4_Z8czerWi-mGgZl-6" style="edgeStyle=orthogonalEdgeStyle;rounded=0;orthogonalLoop=1;jettySize=auto;html=1;exitX=0.5;exitY=1;exitDx=0;exitDy=0;" edge="1" parent="1" source="7nzO4_Z8czerWi-mGgZl-3" target="7nzO4_Z8czerWi-mGgZl-3">
          <mxGeometry relative="1" as="geometry" />
        </mxCell>
        <mxCell id="7nzO4_Z8czerWi-mGgZl-7" value="&lt;span style=&quot;font-size: 36px;&quot;&gt;DATA&lt;/span&gt;" style="text;html=1;align=center;verticalAlign=middle;whiteSpace=wrap;rounded=0;" vertex="1" parent="1">
          <mxGeometry x="250" y="70" width="60" height="30" as="geometry" />
        </mxCell>
        <mxCell id="7nzO4_Z8czerWi-mGgZl-8" value="" style="shape=flexArrow;endArrow=classic;html=1;rounded=0;" edge="1" parent="1" source="7nzO4_Z8czerWi-mGgZl-3">
          <mxGeometry width="50" height="50" relative="1" as="geometry">
            <mxPoint x="400" y="180" as="sourcePoint" />
            <mxPoint x="940" y="5" as="targetPoint" />
          </mxGeometry>
        </mxCell>
      </root>
    </mxGraphModel>
  </diagram>
</mxfile>
